<?xml version="1.0" encoding="UTF-8"?>
<svg xmlns="http://www.w3.org/2000/svg" version="1.1" viewBox="0 0 460.9 47.6">
  <defs>
    <style>
      .cls-1 {
        fill: #fff;
      }

      .cls-1, .cls-2 {
        stroke-width: 0px;
      }

      .cls-2 {
        fill: #fff;
      }

      .cls-3 {
        display: none;
      }
    </style>
  </defs>
  <g id="Layer_3" data-name="Layer 3" class="cls-3">
    <path class="cls-1" d="M65.7,8.6l5.3-7.5s-15.3-12.4-32.6-11c-2.7.2-5.4,1-7.9,2.1-.4.2-.7.4-1,.5-1,.6-2.5,1.9-2.5,1.9,12.4-3.7,30.3,4.9,38.8,13.9h-.1Z"/>
    <path class="cls-1" d="M76.9,18.1c.4,1,.9,2,1.5,2.8,1.6,2.1,4.1,3.6,6.7,3.9-2.1-2-3.2-5-3.1-7.9,0-1.4.4-2.8,1-4,8.3-6.9,17.4-7.4,31.4-1,13.7,6.4,34.7,15.7,45.6-7.6,0,0-4.9,5.9-14.1,8-1.1.3-2.3.5-3.5.6,5.4-6.2,4.9-15.2,4.9-15.2-1.7,7.8-8.4,13.4-15.9,14.3-3.2-.8-6.7-2.3-10.9-4.4,8.4-4.4,9.9-15.3,9.9-15.3-3.6,8.4-13.2,12.6-21.8,10.1h0c-2.2-.7-4.4-1.1-6.5-1.3,4.2-5,6.2-11.8,5.4-18.4-.2-1.7-.6-3.4-1.4-4.9.3,7.6-4.2,15.3-10.4,19.3-2.5,1.6-5.3,2.6-8,4-3.2,1.6-10.5,5.7-14.6,10h.1c-3.4,3-5.7,5.7-6.9,6.8l-4.9-5.5s2.3,7.5-1.8,13.3c-1.1,1.5-2.8,2.6-4.3,3.4-2.3,1.2-4.9,1.7-7.5,1.8-16.9.5-24.2-7.8-41.5-11.8-12.2-2.9-27.9-3.4-43.7,8,0,0,7.9-4,28.3-2.2,16.4,1.4,25.2,6.2,25.2,6.2,0,0-9.9,6.4-10.1,14.7,0,0,7.2-13.4,23.6-9.4,3.7.9,6.6,1.5,8.8,2,0,0-12.5,12.1-7.9,23.3,0,0,3.9-9.8,12-16.9,6.8-6,13.9-9.1,18.6-12.7,6.8-5.2,11-9.5,15.9-13.8h0v-.2Z"/>
    <path class="cls-1" d="M149.4,29.7c-12.2,3.5-25.3,0-35.9-7.1-7.6-5.1-15.3-10.3-24.4-5.2,0,0,3.9,0,6.5,1,4.4,1.7,6.2,4.8,6.2,4.8-12.7,0-17.3,11.8-18.5,15.8-.6,2-1.3,3.9-2.4,5.7-5.3-3.3-10.2-8.5-13-14-1.5,1.3-3.1,2.6-4.9,4-.4.3-.9.7-1.4,1,3.1,5.6,8.8,11.6,14.6,15.1-10,10.2-25.7,13.2-25.7,13.2,15.3-.2,24.9-5.4,30.8-10.9,7,2.2,14.9,1.5,21.3-2.2,1-.6,2-1.2,2.7-2.1-6.3,1.2-13,.8-19-1.5,2.1-3,3.1-5.6,3.5-6.8.3-.8.6-1.7,1-2.5,2.6-5.3,7.8-9.2,13.4-10,6.3-.9,13.3,1.8,17.1,7-4.2,6.7-2.6,16.8-2.6,16.8,2.2-7.6,7.8-14.2,20.1-15.1,1.4,0,2.6-.3,3.8-.4-3.5,10.7,3.9,21.1,3.9,21.1-3.1-8.7-.1-18.5,6.6-24.4,11.4-6.2,10.9-17.3,10.8-17.3-2.8,6.1-7.6,11.9-14.6,13.9h0Z"/>
    <path class="cls-1" d="M16.4,12.1c13.6,5.8,22.4,12.7,37.3,8.7-5,0-9.9-2.1-14.4-4.3,0,0,10.5-.5,18-11.4-2-1.3-4.2-2.6-6.4-3.7-2.7,3.9-10,9.6-21.1,9.1,0,0-6.7-5.3-16.9-8.6,2.5-2.8,5-6.5,6.2-11,.4-1.6.6-3.3.5-5v-.7c0-.7-.5-1.8-.5-1.8C18.6-10.3,13.3-3.5,7.8.5,3.2-.5-2-.9-7.3-.3c-19.2,2.4-37.1,17.4-37.1,17.4C-9.9.7,7,8,16.6,12h-.2Z"/>
    <path class="cls-1" d="M91.4-13.1c-8.3-7.9-25.8-5.1-34.1,3.7,2.5.9,4.8,2,6.8,3,6.1-7.8,18.2-9.4,27.3-6.7Z"/>
    <path class="cls-1" d="M316.4,8.6c8.5-9,26.4-17.6,38.8-13.9,0,0-1.5-1.3-2.5-1.9-.3-.2-.7-.4-1-.5-2.5-1.2-5.2-1.9-7.9-2.1-17.3-1.4-32.6,11-32.6,11l5.3,7.5h0Z"/>
    <path class="cls-1" d="M369.2,1.9c-10.1,3.3-16.9,8.6-16.9,8.6-11,.4-18.4-5.2-21.1-9.1-2.3,1.1-4.4,2.4-6.4,3.7,7.5,10.9,18,11.4,18,11.4-4.5,2.2-9.5,4.2-14.4,4.3,14.9,4,23.7-2.9,37.3-8.7,9.6-4,26.5-11.3,61,5.1,0,0-17.9-15-37.1-17.4-5.4-.7-10.5-.2-15.1.8-5.5-4-10.9-10.8-11.3-17.1,0,0-.4,1.1-.5,1.8v.7c-.1,1.7,0,3.4.5,5,1.2,4.5,3.7,8.2,6.2,11h-.2Z"/>
    <path class="cls-1" d="M375.8,18.9c-17.3,4.1-24.6,12.4-41.5,11.8-2.6,0-5.2-.6-7.5-1.8-1.6-.8-3.2-1.9-4.3-3.4-4.2-5.8-1.8-13.3-1.8-13.3l-4.9,5.5c-1.2-1.1-3.6-3.8-7-6.8h.1c-4-4.3-11.3-8.4-14.6-10-2.7-1.3-5.5-2.4-8-4-6.3-4-10.7-11.6-10.5-19.3-.8,1.5-1.2,3.2-1.4,4.9-.8,6.5,1.2,13.4,5.4,18.4-2.1.2-4.2.7-6.5,1.3h0c-8.5,2.5-18.1-1.7-21.8-10.1,0,0,1.6,11,9.9,15.3-4.1,2.2-7.7,3.6-10.9,4.4-7.5-.9-14.2-6.5-15.9-14.3,0,0-.5,9.1,4.9,15.2-1.2-.2-2.4-.4-3.5-.6-9.2-2.1-14.1-8-14.1-8,10.9,23.3,31.8,14,45.6,7.6,13.9-6.5,23-6,31.4,1,.6,1.2,1,2.6,1,4,.1,2.9-1,5.9-3.1,7.9,2.6-.3,5-1.8,6.7-3.9.6-.8,1.1-1.8,1.5-2.8,4.8,4.4,9.1,8.6,15.9,13.8,4.7,3.6,11.7,6.7,18.6,12.7,8.1,7.1,12,16.9,12,16.9,4.5-11.2-7.9-23.3-7.9-23.3,2.2-.5,5.1-1.1,8.8-2,16.5-4,23.6,9.4,23.6,9.4-.1-8.3-10.1-14.7-10.1-14.7,0,0,8.9-4.9,25.2-6.2,20.4-1.7,28.3,2.2,28.3,2.2-15.8-11.4-31.5-10.8-43.7-8h0v.2Z"/>
    <path class="cls-1" d="M305.7,51c5.8-3.4,11.6-9.5,14.6-15.1-.5-.3-1-.7-1.4-1-1.8-1.4-3.4-2.7-4.9-4-2.8,5.5-7.7,10.7-13,13.9-1-1.8-1.8-3.8-2.4-5.7-1.2-4.1-5.8-16-18.5-15.8,0,0,1.8-3.1,6.2-4.8,2.7-1,6.5-1,6.5-1-9.1-5-16.8,0-24.4,5.2-10.6,7.2-23.6,10.6-35.9,7.1-7-2-11.8-7.8-14.6-13.9-.2,0-.6,11.1,10.8,17.3,6.7,5.9,9.7,15.7,6.6,24.4,0,0,7.4-10.4,3.9-21.1,1.2.2,2.5.3,3.8.4,12.3.9,17.9,7.5,20.1,15.1,0,0,1.6-10.1-2.6-16.8,3.8-5.3,10.8-8,17.1-7,5.7.8,10.8,4.7,13.4,10,.4.8.7,1.6,1,2.5.4,1.2,1.4,3.8,3.5,6.8-6,2.2-12.7,2.7-19,1.5.8.9,1.7,1.6,2.7,2.1,6.4,3.7,14.2,4.3,21.3,2.2,5.9,5.5,15.5,10.7,30.8,10.9,0,0-15.7-3-25.7-13.2h0Z"/>
    <path class="cls-1" d="M318-6.4c2-1,4.3-2.1,6.8-3-8.3-8.8-25.9-11.6-34.1-3.7,9.1-2.7,21.2-1.1,27.4,6.7h0Z"/>
  </g>
  <g id="Layer_2" data-name="Layer 2" class="cls-3">
    <g>
      <path class="cls-2" d="M309.4,12.9c-.2-.1-.4-.2-.6-.4-1.8-6.3,1.3-14,7.6-13.3,6.3.7,5.2,9.7.5,10.2,0,0,8.1,1.3,10.5-4.9,1.9-4.7-.4-13.8-11.6-14.4-12.5-.7-20,11.4-19.8,19.4-3.2,0-6.2.3-8.5,1.2,2.3-7.7-1.6-17.4-8.3-21.8,3.1,7.1,2.1,16.2-3.5,21.4-2.7,2.5-6.1,3.9-9.6,4.9-10.4,2.9-21.7,2.2-31.7-2-3.8-1.6-7.3-3.7-10.3-6.5-4.5-4.3-7.7-10.9-5.5-16.7,2.2-5.7,9.8-7,15.3-6.4-6.4-3.3-13.9-3.1-19.2,0-5.6,3.4-7.5,8.9-6.1,15-.6-.4-1.1-.7-1.6-1.2-3.1-2.6-5-6.3-5.9-10.2-2,3.9-2,8.7,0,12.6,2,3.9,6,6.6,10.4,7.1.5,0,.9,0,1.4,0,7.1,8.5,20.7,14.5,26.3,16.3-.6,9.4-11.3,17.8-20.7,17.7,3.7.5,7.4,1.1,11.1.6,7.7-.9,16.1-9.7,16-17.4,5.7,1.3,11.1,1,16.9.6,4.4-.3,11.2-1,14.4,1,6.3,3.9,4.4,12.5,3.7,14.8-1.2,4.1-3.3,7.9-6.1,11-1.7,2-4.1,3.8-6.7,3.6,10.4.4,20.5-7.4,22.7-17.5,1.1-5,.2-10.7-3.3-14.4,3.9-3.6,10.3-4.1,14.7-1.1,4.4,3,6.3,9.2,4.3,14.2-2,5-7,7.9-11.7,10.5,8.7,1.7,18.9-2.6,22.2-10.8,4-10-.6-19.2-7.1-23.2Z"/>
      <path class="cls-2" d="M248.8,4.3c-.5,3.1-.6,6.5-.5,10.1,2,.2,4,.3,6.1.3s.4,0,.6,0c-.1-3.9.2-7.8,1.3-11.5,2.1-6.8,6.3-13.2,12.7-14-9.4.2-14.8,3.3-17.7,8.2-1.8-.6-3.5-1.8-4.7-3.4-1.6-2.2-2.2-5.1-1.7-7.7-2.3,2.7-3.3,6.6-2.5,10.1.8,3.4,3.2,6.5,6.4,8Z"/>
      <path class="cls-2" d="M255.6,28.1c-.6,0-5.1-.2-6.6-.4.3,6.3.6,12.7,0,18.7-1,1.7-2.5,3.1-4.2,4-3,1.7-6.6,2.1-10,1.7,2.5,2.8,6.4,4.2,10.2,3.7.9-.1,1.7-.3,2.5-.7-1.7,6-4.7,11.1-10.1,14.7,7.3-3.1,12.7-6.1,16.7-13.5,2.9-5.5,3.4-12,3-18.2-.2-3.3-1-6.8-1.5-10.1Z"/>
      <path class="cls-2" d="M323.8,12.4c-2.5.7-4.5.7-6.6.5,1.7,7.6,9.6,17.3,17.3,18.5-6.1-4-10.2-11.7-10.7-19Z"/>
      <path class="cls-2" d="M261.5,45.3c3.7-.2,7.3-2.3,9.3-5.5,2-3.2,2.3-7.3.8-10.8-.2-.5-.5-1-.8-1.5-.8,0-1.8-.1-3-.1s-2.4,0-3.6.1c2.1,2.4,2.9,5.8,2.3,9-.6,3.4-2.5,6.5-5,8.9Z"/>
      <path class="cls-2" d="M267.1,11.9c2.5-.9,6.1-3.1,7.4-5.8-2-3.8-6.5-7.6-10.4-9.5,2.3,4.8,3.1,10,3,15.3Z"/>
      <path class="cls-2" d="M331-3.8c25.6,1.6,25.5-6.8,44.3-18.6-23.9-.3-19.6,16-51.6,10.1,3.9,1.2,6.8,4.7,7.3,8.5Z"/>
      <path class="cls-2" d="M205.4,33.8c10.8,3.2,20-4.7,22.9-12-3.5-1.7-7.5-4-11.1-6.8-.3,6.1-4.9,11.8-10.4,9.8-6-2.1-2.9-10.6,1.8-10.1,0,0-7.6-3-11.4,2.4-2.9,4.1-2.7,13.5,8.1,16.7Z"/>
      <path class="cls-2" d="M143.3,23.4c5.6-1.9,19.2-7.8,26.3-16.3.5,0,.9,0,1.4,0,4.3-.5,8.3-3.3,10.4-7.1s2.1-8.7,0-12.6c-.9,3.9-2.9,7.7-5.9,10.2-.5.4-1.1.8-1.6,1.2,1.3-6.1-.5-11.7-6.1-15-5.2-3.1-12.8-3.3-19.2,0,5.5-.6,13.1.7,15.3,6.4,2.2,5.8-1,12.4-5.5,16.7-3,2.8-6.5,4.9-10.3,6.5-9.9,4.2-21.3,4.9-31.7,2-3.5-1-7-2.4-9.6-4.9-5.7-5.2-6.6-14.3-3.5-21.4-6.7,4.4-10.6,14.2-8.3,21.8-2.3-.9-5.4-1.3-8.5-1.2.1-8.1-7.4-20.2-19.8-19.4-11.2.7-13.5,9.7-11.6,14.4,2.5,6.1,10.5,4.9,10.5,4.9-4.8-.6-5.9-9.5.5-10.2,6.3-.7,9.5,7,7.6,13.3-.2.1-.4.2-.6.4-6.5,4.1-11.1,13.2-7.1,23.2,3.3,8.2,13.5,12.5,22.2,10.8-4.7-2.6-9.7-5.6-11.7-10.5-2-4.9-.1-11.1,4.3-14.2,4.4-3,10.9-2.5,14.7,1.1-3.5,3.7-4.4,9.4-3.3,14.4,2.2,10.1,12.3,18,22.7,17.5-2.6.2-4.9-1.7-6.7-3.6-2.8-3.2-4.9-7-6.1-11-.7-2.3-2.6-10.9,3.7-14.8,3.2-2,10-1.2,14.4-1,5.8.3,11.3.7,16.9-.6,0,7.7,8.4,16.4,16,17.4,3.7.4,7.4,0,11.1-.6-9.4,0-20.2-8.3-20.7-17.7Z"/>
      <path class="cls-2" d="M126,3.1c1.1,3.7,1.5,7.6,1.3,11.5.2,0,.4,0,.6,0,2,0,4-.1,6.1-.3.2-3.6,0-7-.5-10.1,3.2-1.5,5.7-4.5,6.4-8,.8-3.5-.2-7.4-2.5-10.1.6,2.7,0,5.5-1.7,7.7-1.2,1.6-2.8,2.8-4.7,3.4-2.9-5-8.3-8-17.7-8.2,6.4.9,10.6,7.2,12.7,14Z"/>
      <path class="cls-2" d="M58.4,12.4c-.5,7.3-4.5,15-10.7,19,7.7-1.2,15.6-10.9,17.3-18.5-2.1.2-4.1.2-6.6-.5Z"/>
      <path class="cls-2" d="M333,.3c0,1.1-.2,2.1-.5,3.1-.6,2.1-1.8,3.8-3.5,5.1,1.5.5,3.1.9,4.7,1.2,12.1,2.1,26.4-4.8,26.9-17.8-4.7,9.7-17.9,12.1-27.6,8.5Z"/>
      <path class="cls-2" d="M53.2,8.4c-1.7-1.3-2.9-3-3.5-5.1-.3-1-.4-2-.5-3.1-9.8,3.6-23,1.2-27.6-8.5.6,13,14.9,19.9,26.9,17.8,1.6-.3,3.2-.7,4.7-1.2Z"/>
      <path class="cls-2" d="M114.5,27.4c-1.2,0-2.1,0-3,.1-.3.5-.6,1-.8,1.5-1.5,3.4-1.2,7.6.8,10.8,2,3.2,5.6,5.3,9.3,5.5-2.5-2.4-4.4-5.5-5-8.9-.5-3.2.2-6.6,2.3-9-1.2,0-2.4-.1-3.6-.1Z"/>
      <path class="cls-2" d="M115.2,11.9c-.1-5.3.7-10.5,3-15.3-3.9,1.9-8.4,5.7-10.4,9.5,1.3,2.8,4.9,5,7.4,5.8Z"/>
      <path class="cls-2" d="M51.3-3.8c.5-3.8,3.5-7.3,7.3-8.5C26.6-6.5,30.9-22.7,7-22.4,25.8-10.7,25.7-2.2,51.3-3.8Z"/>
      <path class="cls-2" d="M173.6,14.8c4.8-.5,7.9,8,1.8,10.1-5.6,1.9-10.1-3.8-10.4-9.8-3.6,2.8-7.6,5-11.1,6.8,3,7.4,12.2,15.2,22.9,12,10.8-3.2,11-12.5,8.1-16.7-3.8-5.4-11.4-2.4-11.4-2.4Z"/>
      <path class="cls-2" d="M218.9,54.6c-1.8.9-3.8,1.3-5.7,1.2-.3-2-1.2-4-2.4-5.6-3.2-4.2-8.6-6.1-12.6-9.6-4.4-3.8-7-10.7-7-10.7,0,0-2.6,6.8-7,10.7-4,3.5-9.3,5.4-12.6,9.6-1.3,1.6-2.1,3.6-2.4,5.6-2,0-4-.3-5.7-1.2-3.1-1.6-5.4-4.3-7-7.4-.9,3.6,0,7.7,2.6,10.5,2.5,2.8,6.4,4.3,10.1,3.9.3,0,.6,0,.8-.1.5,1.2,1.2,2.2,2.2,3.1,2,1.8,4.8,2.6,7.5,3.1,5-9.1,18.1-9.1,23.2,0,2.7-.5,5.5-1.3,7.5-3.1.9-.8,1.7-1.9,2.2-3.1.3,0,.6.1.8.1,3.7.4,7.6-1.1,10.1-3.9,2.5-2.8,3.5-6.9,2.6-10.5-1.6,3.1-3.9,5.8-7,7.4ZM205.3,58.7c-3.8-3.5-8.8-5.5-14.2-5.5s-10.4,2-14.2,5.5c-.2-.3-.4-.8-.4-1.3,0-.8.4-1.8,1-2.6,1.1-1.4,3.1-2.7,5.3-4.1,2-1.2,4.2-2.6,6.2-4.4.7-.6,1.4-1.3,2-1.9.6.7,1.3,1.3,2,1.9,2.1,1.8,4.3,3.2,6.2,4.4,2.3,1.4,4.2,2.7,5.3,4.1.6.8,1,1.8,1,2.6,0,.5-.2,1-.4,1.3Z"/>
      <path class="cls-2" d="M147.5,52.1c-3.4.4-7,0-10-1.7-1.7-1-3.1-2.4-4.2-4-.5-6-.3-12.4,0-18.7-1.6.3-6,.4-6.6.4-.5,3.2-1.3,6.8-1.5,10.1-.5,6.2,0,12.7,3,18.2,4,7.5,9.5,10.4,16.7,13.5-5.4-3.6-8.4-8.7-10.1-14.7.8.3,1.6.5,2.5.7,3.7.5,7.6-.9,10.2-3.7Z"/>
      <path class="cls-2" d="M18.2,11.7c1,1,1.8,1.9,2.5,2.7-.2.7-.4,1.4-.6,2.1-1.7,4.3-5.7,7.7-10.2,8.8-4.6,1.1-9.6-.2-13.1-3.4,4.3,0,8.7-.9,12.3-3.3,3.3-2.3,5.7-6,5.9-10,1.1,1,2.2,2,3.2,3.1Z"/>
      <path class="cls-2" d="M6.6-3.4c.6,1,1.1,1.9,1.5,2.6-.3.5-.5,1.1-.9,1.6C5.1,3.9,1.3,5.8-2.5,5.9c-3.8,0-7.5-2-9.7-5.1,3.4.9,7.1.9,10.3-.4C1.1-.8,3.7-3.3,4.6-6.4c.7,1,1.4,2,2,3Z"/>
      <path class="cls-2" d="M39.5,16.8c5.2.4,10.4-.2,15.2-2.2-2.1,3.7-6,7.9-9.8,9.8-2.6-1.4-4.7-5-5.4-7.5Z"/>
      <path class="cls-2" d="M33.7,13.7C9.3,6.5,16.3-24.7-11.5-18-5.3-17.3-.6-12.9,2.1-7.3,3.3-4.7,4-1.9,4.9.8c1.1,3.3,2.6,6.6,5,9.2,5.7,6.4,16.5,8.3,23.9,3.8Z"/>
      <path class="cls-2" d="M364.1,11.7c-1,1-1.8,1.9-2.5,2.7.2.7.4,1.4.6,2.1,1.7,4.3,5.7,7.7,10.2,8.8,4.6,1.1,9.6-.2,13.1-3.4-4.3,0-8.7-.9-12.3-3.3-3.3-2.3-5.7-6-5.9-10-1.1,1-2.2,2-3.2,3.1Z"/>
      <path class="cls-2" d="M375.6-3.4c-.6,1-1.1,1.9-1.5,2.6.3.5.5,1.1.9,1.6,2.2,3.1,5.9,5.1,9.7,5.1,3.8,0,7.5-2,9.7-5.1-3.4.9-7.1.9-10.3-.4-3-1.2-5.6-3.7-6.5-6.8-.7,1-1.4,2-2,3Z"/>
      <path class="cls-2" d="M342.7,16.8c-5.2.4-10.4-.2-15.2-2.2,2.1,3.7,6,7.9,9.8,9.8,2.6-1.4,4.7-5,5.4-7.5Z"/>
      <path class="cls-2" d="M348.6,13.7c24.4-7.2,17.4-38.5,45.2-31.7-6.2.6-10.8,5.1-13.5,10.7-1.3,2.6-1.9,5.4-2.8,8.1-1.1,3.3-2.6,6.6-5,9.2-5.7,6.4-16.5,8.3-23.9,3.8Z"/>
    </g>
  </g>
  <g id="Layer_4" data-name="Layer 4" class="cls-3">
    <g>
      <g>
        <g>
          <path class="cls-1" d="M315,17.8c1.4-1.6,3.1-2.9,5.1-3.9,1-.5,2-.9,3.1-1.2,1.1-.3,2.3-.5,3.5-.6,2.4-.2,5,.2,7.4,1.1,2.4.9,4.8,2.6,6.7,4.9.9,1.1,1.7,2.4,2.3,3.7.1.3.3.7.4,1,.1.3.2.7.3,1,.1.3.2.7.3,1.1,0,.4.2.7.2,1.1.2,1.4.3,2.9.2,4.3-.1,1.4-.4,2.9-.8,4.3-.5,1.4-1.1,2.8-1.9,4.1-.8,1.3-1.8,2.4-2.9,3.5-1.1,1-2.4,1.9-3.7,2.6-1.3.7-2.7,1.2-4.1,1.6-1.4.4-2.7.6-4.1.7-1.3.1-2.6,0-3.9,0-.6,0-1.3-.2-1.9-.3-.6-.1-1.2-.2-1.8-.4-1.2-.3-2.3-.7-3.4-1.1-1.1-.4-2.2-.9-3.2-1.4-1-.5-2.1-1.1-3-1.7-1-.6-1.9-1.3-2.8-2.1-.5-.4-.9-.8-1.3-1.1-.4-.4-.9-.8-1.3-1.2-1.7-1.7-3.2-3.6-4.3-5.8-.6-1.1-1.1-2.2-1.5-3.4-.4-1.2-.7-2.4-.9-3.7-.4-2.5-.3-5.1.2-7.5.2-1.2.6-2.4,1-3.5.4-1.1,1-2.2,1.6-3.2,1.2-2.1,2.7-3.9,4.3-5.5,1.7-1.6,3.5-3,5.4-4.1,3.9-2.3,8.2-3.7,12.8-4,1.1,0,2.3,0,3.4,0h.9c0,0,.9.2.9.2.3,0,.6,0,.8.1l.8.2c2.2.5,4.3,1.1,6.3,2,2,.8,3.8,1.8,5.6,2.8,1.7,1,3.4,2,5,3,1.6,1,3.2,1.9,4.7,2.7.8.4,1.6.7,2.3,1.1l1.2.5c4.5,1.8,9.8,2.2,14.6,2.8,5,.7,9.9,1.7,14.9,2.6,3.9.7,7.9,1.3,11.7,2.5-8.1.2-16.2.1-24.2.2-6.1,0-12.4,0-18.4-1.3-5.8-1.2-10.7-4-15.8-6.8-1.6-.9-3.2-1.6-4.8-2.3-1.6-.7-3.1-1.1-4.7-1.5h-.6c-.2-.2-.4-.2-.6-.2h-.6c0,0-.6-.1-.6-.1-.8,0-1.5,0-2.3,0-3.1.2-6.3,1.2-9,2.9-2.7,1.6-5,4-6.3,6.6-.6,1.3-1.1,2.7-1.3,4.1,0,.7-.1,1.4,0,2,0,.7.2,1.3.3,1.9.2.6.4,1.2.7,1.8.3.6.6,1.2,1.1,1.7.8,1.1,1.8,2.1,3,3,2.3,1.8,5.2,3.1,8.1,3.8.7.2,1.4.3,2.2.4.2,0,.4,0,.5,0,.2,0,.4,0,.5,0,.3,0,.6,0,1,0,1.3,0,2.5-.1,3.4-.4.5-.2.9-.3,1.3-.5.4-.2.7-.4,1-.7.3-.3.6-.6.8-.9.2-.3.5-.7.6-1.1.2-.4.3-.9.4-1.3,0-.5.1-.9.1-1.4,0-.5,0-1-.1-1.4,0-.1,0-.2,0-.3,0-.1,0-.2,0-.3v-.3c-.1-.1-.2-.2-.2-.3-.3-.9-1-1.8-1.9-2.7-.9-.9-2.1-1.7-3.5-2.3-1.4-.6-3.1-1.1-4.9-1.4-1.8-.3-3.8-.4-5.9-.5Z"/>
          <g>
            <polygon class="cls-1" points="318 -1.2 323.2 -10.9 328.4 -1.2 318 -1.2"/>
            <polygon class="cls-1" points="318 45 323.2 54.7 328.4 45 318 45"/>
          </g>
          <g>
            <polygon class="cls-1" points="318 -1.2 323.2 -10.9 328.4 -1.2 318 -1.2"/>
            <polygon class="cls-1" points="318 45 323.2 54.7 328.4 45 318 45"/>
          </g>
        </g>
        <path class="cls-1" d="M297.6,33.1c-.7-1.2-1.2-2.5-1.7-3.8h0c-.5-1.4-.8-2.8-1-4.2h0c-.1-.8-.2-1.5-.2-2.2l-44.3,1.7s22.2,7.5,49.6,12.1c-.9-1.1-1.7-2.3-2.3-3.6Z"/>
      </g>
      <g>
        <g>
          <path class="cls-1" d="M211.4,17.8c1.4-1.6,3.1-2.9,5.1-3.9,1-.5,2-.9,3.1-1.2,1.1-.3,2.3-.5,3.5-.6,2.4-.2,5,.2,7.4,1.1,2.4.9,4.8,2.6,6.7,4.9.9,1.1,1.7,2.4,2.3,3.7.1.3.3.7.4,1,.1.3.2.7.3,1,.1.3.2.7.3,1.1,0,.4.2.7.2,1.1.2,1.4.3,2.9.2,4.3-.1,1.4-.4,2.9-.8,4.3-.5,1.4-1.1,2.8-1.9,4.1-.8,1.3-1.8,2.4-2.9,3.5-1.1,1-2.4,1.9-3.7,2.6-1.3.7-2.7,1.2-4.1,1.6-1.4.4-2.7.6-4.1.7-1.3.1-2.6,0-3.9,0-.6,0-1.3-.2-1.9-.3-.6-.1-1.2-.2-1.8-.4-1.2-.3-2.3-.7-3.4-1.1-1.1-.4-2.2-.9-3.2-1.4-1-.5-2.1-1.1-3-1.7-1-.6-1.9-1.3-2.8-2.1-.5-.4-.9-.8-1.3-1.1-.4-.4-.9-.8-1.3-1.2-1.7-1.7-3.2-3.6-4.3-5.8-.6-1.1-1.1-2.2-1.5-3.4-.4-1.2-.7-2.4-.9-3.7-.4-2.5-.3-5.1.2-7.5.2-1.2.6-2.4,1-3.5.4-1.1,1-2.2,1.6-3.2,1.2-2.1,2.7-3.9,4.3-5.5,1.7-1.6,3.5-3,5.4-4.1,3.9-2.3,8.2-3.7,12.8-4,1.1,0,2.3,0,3.4,0h.9c0,0,.9.2.9.2.3,0,.6,0,.8.1l.8.2c2.2.5,4.3,1.1,6.3,2,2,.8,3.8,1.8,5.6,2.8,1.7,1,3.4,2,5,3,1.6,1,3.2,1.9,4.7,2.7.8.4,1.6.7,2.3,1.1l1.2.5c4.5,1.8,9.8,2.2,14.6,2.8,5,.7,9.9,1.7,14.9,2.6,3.9.7,7.9,1.3,11.7,2.5-8.1.2-16.2.1-24.2.2-6.1,0-12.4,0-18.4-1.3-5.8-1.2-10.7-4-15.8-6.8-1.6-.9-3.2-1.6-4.8-2.3-1.6-.7-3.1-1.1-4.7-1.5h-.6c-.2-.2-.4-.2-.6-.2h-.6c0,0-.6-.1-.6-.1-.8,0-1.5,0-2.3,0-3.1.2-6.3,1.2-9,2.9-2.7,1.6-5,4-6.3,6.6-.6,1.3-1.1,2.7-1.3,4.1,0,.7-.1,1.4,0,2,0,.7.2,1.3.3,1.9.2.6.4,1.2.7,1.8.3.6.6,1.2,1.1,1.7.8,1.1,1.8,2.1,3,3,2.3,1.8,5.2,3.1,8.1,3.8.7.2,1.4.3,2.2.4.2,0,.4,0,.5,0,.2,0,.4,0,.5,0,.3,0,.6,0,1,0,1.3,0,2.5-.1,3.4-.4.5-.2.9-.3,1.3-.5.4-.2.7-.4,1-.7.3-.3.6-.6.8-.9.2-.3.5-.7.6-1.1.2-.4.3-.9.4-1.3,0-.5.1-.9.1-1.4,0-.5,0-1-.1-1.4,0-.1,0-.2,0-.3,0-.1,0-.2,0-.3v-.3c-.1-.1-.2-.2-.2-.3-.3-.9-1-1.8-1.9-2.7-.9-.9-2.1-1.7-3.5-2.3-1.4-.6-3.1-1.1-4.9-1.4-1.8-.3-3.8-.4-5.9-.5Z"/>
          <g>
            <polygon class="cls-1" points="214.4 -1.2 219.6 -10.9 224.8 -1.2 214.4 -1.2"/>
            <polygon class="cls-1" points="214.4 45 219.6 54.7 224.8 45 214.4 45"/>
          </g>
          <g>
            <polygon class="cls-1" points="214.4 -1.2 219.6 -10.9 224.8 -1.2 214.4 -1.2"/>
            <polygon class="cls-1" points="214.4 45 219.6 54.7 224.8 45 214.4 45"/>
          </g>
        </g>
        <path class="cls-1" d="M193.9,33.1c-.7-1.2-1.2-2.5-1.7-3.8h0c-.5-1.4-.8-2.8-1-4.2h0c-.1-.8-.2-1.5-.2-2.2l-44.3,1.7s22.2,7.5,49.6,12.1c-.9-1.1-1.7-2.3-2.3-3.6Z"/>
      </g>
      <g>
        <g>
          <path class="cls-1" d="M107.8,17.8c1.4-1.6,3.1-2.9,5.1-3.9,1-.5,2-.9,3.1-1.2,1.1-.3,2.3-.5,3.5-.6,2.4-.2,5,.2,7.4,1.1,2.4.9,4.8,2.6,6.7,4.9.9,1.1,1.7,2.4,2.3,3.7.1.3.3.7.4,1,.1.3.2.7.3,1,.1.3.2.7.3,1.1,0,.4.2.7.2,1.1.2,1.4.3,2.9.2,4.3-.1,1.4-.4,2.9-.8,4.3-.5,1.4-1.1,2.8-1.9,4.1-.8,1.3-1.8,2.4-2.9,3.5-1.1,1-2.4,1.9-3.7,2.6-1.3.7-2.7,1.2-4.1,1.6-1.4.4-2.7.6-4.1.7-1.3.1-2.6,0-3.9,0-.6,0-1.3-.2-1.9-.3-.6-.1-1.2-.2-1.8-.4-1.2-.3-2.3-.7-3.4-1.1-1.1-.4-2.2-.9-3.2-1.4-1-.5-2.1-1.1-3-1.7-1-.6-1.9-1.3-2.8-2.1-.5-.4-.9-.8-1.3-1.1-.4-.4-.9-.8-1.3-1.2-1.7-1.7-3.2-3.6-4.3-5.8-.6-1.1-1.1-2.2-1.5-3.4-.4-1.2-.7-2.4-.9-3.7-.4-2.5-.3-5.1.2-7.5.2-1.2.6-2.4,1-3.5.4-1.1,1-2.2,1.6-3.2,1.2-2.1,2.7-3.9,4.3-5.5,1.7-1.6,3.5-3,5.4-4.1,3.9-2.3,8.2-3.7,12.8-4,1.1,0,2.3,0,3.4,0h.9c0,0,.9.2.9.2.3,0,.6,0,.8.1l.8.2c2.2.5,4.3,1.1,6.3,2,2,.8,3.8,1.8,5.6,2.8,1.7,1,3.4,2,5,3,1.6,1,3.2,1.9,4.7,2.7.8.4,1.6.7,2.3,1.1l1.2.5c4.5,1.8,9.8,2.2,14.6,2.8,5,.7,9.9,1.7,14.9,2.6,3.9.7,7.9,1.3,11.7,2.5-8.1.2-16.2.1-24.2.2-6.1,0-12.4,0-18.4-1.3-5.8-1.2-10.7-4-15.8-6.8-1.6-.9-3.2-1.6-4.8-2.3-1.6-.7-3.1-1.1-4.7-1.5h-.6c-.2-.2-.4-.2-.6-.2h-.6c0,0-.6-.1-.6-.1-.8,0-1.5,0-2.3,0-3.1.2-6.3,1.2-9,2.9-2.7,1.6-5,4-6.3,6.6-.6,1.3-1.1,2.7-1.3,4.1,0,.7-.1,1.4,0,2,0,.7.2,1.3.3,1.9.2.6.4,1.2.7,1.8.3.6.6,1.2,1.1,1.7.8,1.1,1.8,2.1,3,3,2.3,1.8,5.2,3.1,8.1,3.8.7.2,1.4.3,2.2.4.2,0,.4,0,.5,0,.2,0,.4,0,.5,0,.3,0,.6,0,1,0,1.3,0,2.5-.1,3.4-.4.5-.2.9-.3,1.3-.5.4-.2.7-.4,1-.7.3-.3.6-.6.8-.9.2-.3.5-.7.6-1.1.2-.4.3-.9.4-1.3,0-.5.1-.9.1-1.4,0-.5,0-1-.1-1.4,0-.1,0-.2,0-.3,0-.1,0-.2,0-.3v-.3c-.1-.1-.2-.2-.2-.3-.3-.9-1-1.8-1.9-2.7-.9-.9-2.1-1.7-3.5-2.3-1.4-.6-3.1-1.1-4.9-1.4-1.8-.3-3.8-.4-5.9-.5Z"/>
          <g>
            <polygon class="cls-1" points="110.7 -1.2 116 -10.9 121.2 -1.2 110.7 -1.2"/>
            <polygon class="cls-1" points="110.7 45 116 54.7 121.2 45 110.7 45"/>
          </g>
          <g>
            <polygon class="cls-1" points="110.7 -1.2 116 -10.9 121.2 -1.2 110.7 -1.2"/>
            <polygon class="cls-1" points="110.7 45 116 54.7 121.2 45 110.7 45"/>
          </g>
        </g>
        <path class="cls-1" d="M90.3,33.1c-.7-1.2-1.2-2.5-1.7-3.8h0c-.5-1.4-.8-2.8-1-4.2h0c-.1-.8-.2-1.5-.2-2.2l-44.3,1.7s22.2,7.5,49.6,12.1c-.9-1.1-1.7-2.3-2.3-3.6Z"/>
      </g>
      <g>
        <g>
          <path class="cls-1" d="M4.2,17.8c1.4-1.6,3.1-2.9,5.1-3.9,1-.5,2-.9,3.1-1.2,1.1-.3,2.3-.5,3.5-.6,2.4-.2,5,.2,7.4,1.1,2.4.9,4.8,2.6,6.7,4.9.9,1.1,1.7,2.4,2.3,3.7.1.3.3.7.4,1,.1.3.2.7.3,1,.1.3.2.7.3,1.1,0,.4.2.7.2,1.1.2,1.4.3,2.9.2,4.3-.1,1.4-.4,2.9-.8,4.3-.5,1.4-1.1,2.8-1.9,4.1-.8,1.3-1.8,2.4-2.9,3.5-1.1,1-2.4,1.9-3.7,2.6-1.3.7-2.7,1.2-4.1,1.6-1.4.4-2.7.6-4.1.7-1.3.1-2.6,0-3.9,0-.6,0-1.3-.2-1.9-.3-.6-.1-1.2-.2-1.8-.4-1.2-.3-2.3-.7-3.4-1.1-1.1-.4-2.2-.9-3.2-1.4-1-.5-2.1-1.1-3-1.7-1-.6-1.9-1.3-2.8-2.1-.5-.4-.9-.8-1.3-1.1-.4-.4-.9-.8-1.3-1.2-1.7-1.7-3.2-3.6-4.3-5.8-.6-1.1-1.1-2.2-1.5-3.4-.4-1.2-.7-2.4-.9-3.7-.4-2.5-.3-5.1.2-7.5.2-1.2.6-2.4,1-3.5.4-1.1,1-2.2,1.6-3.2,1.2-2.1,2.7-3.9,4.3-5.5C-4.6,3.4-2.8,2-.9.9,3-1.4,7.4-2.8,11.9-3.1c1.1,0,2.3,0,3.4,0h.9c0,0,.9.2.9.2.3,0,.6,0,.8.1l.8.2c2.2.5,4.3,1.1,6.3,2,2,.8,3.8,1.8,5.6,2.8,1.7,1,3.4,2,5,3,1.6,1,3.2,1.9,4.7,2.7.8.4,1.6.7,2.3,1.1l1.2.5c4.5,1.8,9.8,2.2,14.6,2.8,5,.7,9.9,1.7,14.9,2.6,3.9.7,7.9,1.3,11.7,2.5-8.1.2-16.2.1-24.2.2-6.1,0-12.4,0-18.4-1.3-5.8-1.2-10.7-4-15.8-6.8-1.6-.9-3.2-1.6-4.8-2.3-1.6-.7-3.1-1.1-4.7-1.5h-.6c-.2-.2-.4-.2-.6-.2h-.6c0,0-.6-.1-.6-.1-.8,0-1.5,0-2.3,0-3.1.2-6.3,1.2-9,2.9-2.7,1.6-5,4-6.3,6.6-.6,1.3-1.1,2.7-1.3,4.1,0,.7-.1,1.4,0,2,0,.7.2,1.3.3,1.9.2.6.4,1.2.7,1.8.3.6.6,1.2,1.1,1.7.8,1.1,1.8,2.1,3,3,2.3,1.8,5.2,3.1,8.1,3.8.7.2,1.4.3,2.2.4.2,0,.4,0,.5,0,.2,0,.4,0,.5,0,.3,0,.6,0,1,0,1.3,0,2.5-.1,3.4-.4.5-.2.9-.3,1.3-.5.4-.2.7-.4,1-.7.3-.3.6-.6.8-.9.2-.3.5-.7.6-1.1.2-.4.3-.9.4-1.3,0-.5.1-.9.1-1.4,0-.5,0-1-.1-1.4,0-.1,0-.2,0-.3,0-.1,0-.2,0-.3v-.3c-.1-.1-.2-.2-.2-.3-.3-.9-1-1.8-1.9-2.7-.9-.9-2.1-1.7-3.5-2.3-1.4-.6-3.1-1.1-4.9-1.4-1.8-.3-3.8-.4-5.9-.5Z"/>
          <g>
            <polygon class="cls-1" points="7.1 -1.2 12.3 -10.9 17.6 -1.2 7.1 -1.2"/>
            <polygon class="cls-1" points="7.1 45 12.3 54.7 17.6 45 7.1 45"/>
          </g>
          <g>
            <polygon class="cls-1" points="7.1 -1.2 12.3 -10.9 17.6 -1.2 7.1 -1.2"/>
            <polygon class="cls-1" points="7.1 45 12.3 54.7 17.6 45 7.1 45"/>
          </g>
        </g>
        <path class="cls-1" d="M-13.3,33.1c-.7-1.2-1.2-2.5-1.7-3.8h0c-.5-1.4-.8-2.8-1-4.2h0c-.1-.8-.2-1.5-.2-2.2l-44.3,1.7s22.2,7.5,49.6,12.1c-.9-1.1-1.7-2.3-2.3-3.6Z"/>
      </g>
    </g>
  </g>
  <g id="Layer_5" data-name="Layer 5">
    <g>
      <g>
        <g>
          <path class="cls-1" d="M6,35.4c1.5-2,3.1-3.8,4.7-5.5,1.6-1.8,3.2-3.5,4.9-5.1.8-.8,1.7-1.7,2.5-2.5.4-.4.9-.8,1.3-1.2l.6-.6c0,0,.2-.2.4-.3l.4-.3.8-.6c.3-.2.5-.4.8-.6l1.7-1.1c.3-.2.6-.4.9-.5l.9-.5c.3-.2.6-.3.9-.5l.9-.4.9-.4.5-.2.5-.2,2-.7c.7-.2,1.3-.4,2-.5h.5c.2-.2.3-.2.5-.2.3,0,.7-.1,1-.2l1-.2c.3,0,.7,0,1.1-.1.4,0,.7,0,1.1-.1h.5c.2,0,.4,0,.5,0h2.1c.7,0,1.4,0,2.1,0,.7,0,1.4.1,2.1.2l1.1.2c.4,0,.7.1,1,.2.7.2,1.4.3,2.1.5l2.1.6c.3.1.7.3,1,.4l1,.4c.3.1.7.3,1,.4l1,.5c1.3.6,2.5,1.4,3.7,2.1.8.4,1.5,1,2.3,1.3l.6.3c.2.1.4.2.6.3.4.2.8.4,1.2.5.4.2.8.3,1.2.5.2,0,.4.1.6.2.2,0,.4.1.6.2.2,0,.4.1.6.2l.6.2c.2,0,.4.1.6.2.2,0,.4,0,.7.1,1.8.4,3.6.5,5.4.5.2,0,.5,0,.7,0,.1,0,.2,0,.3,0h.3c.5,0,.9,0,1.4-.1l1.4-.2h.4s.3-.1.3-.1h.7c1.9-.5,3.7-1,5.6-1.8h.3c.1-.2.2-.2.4-.3l.8-.4c.5-.2,1.1-.5,1.6-.7,1.1-.5,2.2-.9,3.2-1.4,2.2-.9,4.4-1.8,6.6-2.6,2.3-.8,4.5-1.6,6.9-2.2-1.5,2-3,3.8-4.6,5.6-1.6,1.8-3.2,3.5-4.9,5.1-.8.8-1.7,1.7-2.5,2.5-.4.4-.9.8-1.3,1.2l-.6.6c0,0-.2.2-.4.3l-.4.3-.8.6c-.3.2-.5.4-.8.6l-1.7,1.2c-.3.2-.6.4-.9.5l-.9.5c-.3.2-.6.3-.9.5l-.9.4-.9.4c-.2,0-.3.1-.5.2l-.5.2-2,.7c-1.3.4-2.7.8-4.1,1l-1,.2c-.3,0-.7,0-1.1.1-.4,0-.7,0-1.1.1h-.5c-.2,0-.4,0-.5,0-.7,0-1.4,0-2.1,0-.7,0-1.4,0-2.1-.1-2.8-.2-5.7-.8-8.4-1.8h-.3c0,0-.2-.2-.2-.2l-.5-.2-1-.4c-.3-.1-.7-.3-1-.4l-1-.5c-1.3-.6-2.5-1.4-3.7-2.1-.4-.2-.7-.5-1.1-.7-.4-.3-.8-.4-1.1-.6l-.6-.3c-.2-.1-.4-.2-.6-.3-.4-.2-.8-.4-1.2-.5-1.6-.7-3.3-1.2-5.1-1.5-1.8-.4-3.6-.5-5.4-.5-.2,0-.5,0-.7,0-.1,0-.2,0-.3,0h-.3c-.5,0-.9,0-1.4.1l-1.4.2h-.4s-.3.1-.3.1h-.7c-1.9.5-3.7,1-5.6,1.8h-.3c-.1.2-.2.2-.4.3l-.8.4c-.5.2-1.1.5-1.6.7-1.1.5-2.2.9-3.2,1.4-2.2.9-4.4,1.8-6.6,2.6-2.3.8-4.5,1.6-6.9,2.2Z"/>
          <g>
            <polygon class="cls-1" points="47.7 15 31.3 15 39.5 2.5 47.7 15"/>
            <polygon class="cls-1" points="81.1 33.5 64.8 33.5 72.9 46 81.1 33.5"/>
          </g>
        </g>
        <g>
          <path class="cls-1" d="M61.7,15.9c.3.2.5.3.8.5.5.3.9.6,1.3.7h0s.7.4.7.4c0,0,0,0,.1,0,0,0,.2,0,.3.1.2,0,.3.2.5.2.2,0,.4.2.6.2.4.2.8.3,1.2.5h0s0,0,.1,0c0,0,.1,0,.2,0,.2,0,.4.1.6.2h0c0,0,.2,0,.3.1,0,0,.1,0,.2,0l.8.2c.2,0,.4,0,.5.1h.1c0,0,.1,0,.2,0h.2s0,0,0,0c.8.2,1.6.3,2.5.4,1.9-1.1,3.9-2.1,6-3,2-.9,4.1-1.8,6.3-2.5,1.1-.4,2.1-.7,3.2-1.1,1.1-.3,2.2-.7,3.3-.9,2.2-.6,4.4-1.1,6.7-1.5,4.5-.8,9.2-1.3,13.8-1.4-4.6-.8-9.3-1.2-14.1-1.3-2.4,0-4.8,0-7.1.2-1.2,0-2.4.2-3.6.3-1.2.1-2.4.3-3.6.4-2.4.3-4.8.8-7.1,1.3-2.4.5-4.7,1.2-7.1,1.9-2.3.7-4.7,1.6-7,2.5-.6.2-1.2.5-1.8.8l.5.3Z"/>
          <path class="cls-1" d="M51.2,32.9l-.4-.3c-.4-.2-.8-.5-1.1-.7h0s0,0,0,0c0,0-.2-.1-.4-.2-.2,0-.3-.2-.5-.3l-.6-.3s0,0-.1,0c0,0-.2,0-.3-.1-.2,0-.4-.2-.6-.3-.2,0-.4-.2-.6-.3-1.3-.6-2.8-1-4.6-1.4-.8-.2-1.6-.3-2.5-.4,0,0,0,0,0,0-1.9,1.1-3.9,2.1-6,3-2,.9-4.1,1.8-6.3,2.5-1.1.4-2.1.7-3.2,1.1-1.1.3-2.2.7-3.3.9-2.2.6-4.4,1.1-6.7,1.5-4.5.8-9.2,1.3-13.8,1.4,4.6.8,9.3,1.2,14.1,1.3,2.4,0,4.8,0,7.1-.2,1.2,0,2.4-.2,3.6-.3,1.2-.1,2.4-.3,3.6-.4,2.4-.3,4.8-.8,7.1-1.3,2.4-.5,4.7-1.2,7.1-1.9,2.3-.7,4.7-1.6,7-2.5.6-.2,1.2-.5,1.8-.8,0,0,0,0-.1,0Z"/>
        </g>
      </g>
      <g>
        <g>
          <path class="cls-1" d="M92.8,35.4c1.5-2,3.1-3.8,4.7-5.5,1.6-1.8,3.2-3.5,4.9-5.1.8-.8,1.7-1.7,2.5-2.5.4-.4.9-.8,1.3-1.2l.6-.6c0,0,.2-.2.4-.3l.4-.3.8-.6c.3-.2.5-.4.8-.6l1.7-1.1c.3-.2.6-.4.9-.5l.9-.5c.3-.2.6-.3.9-.5l.9-.4.9-.4.5-.2.5-.2,2-.7c.7-.2,1.3-.4,2-.5h.5c.2-.2.3-.2.5-.2.3,0,.7-.1,1-.2l1-.2c.3,0,.7,0,1.1-.1.4,0,.7,0,1.1-.1h.5c.2,0,.4,0,.5,0h2.1c.7,0,1.4,0,2.1,0,.7,0,1.4.1,2.1.2l1.1.2c.4,0,.7.1,1,.2.7.2,1.4.3,2.1.5l2.1.6c.3.1.7.3,1,.4l1,.4c.3.1.7.3,1,.4l1,.5c1.3.6,2.5,1.4,3.7,2.1.8.4,1.5,1,2.3,1.3l.6.3c.2.1.4.2.6.3.4.2.8.4,1.2.5.4.2.8.3,1.2.5.2,0,.4.1.6.2.2,0,.4.1.6.2.2,0,.4.1.6.2l.6.2c.2,0,.4.1.6.2.2,0,.4,0,.7.1,1.8.4,3.6.5,5.4.5.2,0,.5,0,.7,0,.1,0,.2,0,.3,0h.3c.5,0,.9,0,1.4-.1l1.4-.2h.4s.3-.1.3-.1h.7c1.9-.5,3.7-1,5.6-1.8h.3c.1-.2.2-.2.4-.3l.8-.4c.5-.2,1.1-.5,1.6-.7,1.1-.5,2.2-.9,3.2-1.4,2.2-.9,4.4-1.8,6.6-2.6,2.3-.8,4.5-1.6,6.9-2.2-1.5,2-3,3.8-4.6,5.6-1.6,1.8-3.2,3.5-4.9,5.1-.8.8-1.7,1.7-2.5,2.5-.4.4-.9.8-1.3,1.2l-.6.6c0,0-.2.2-.4.3l-.4.3-.8.6c-.3.2-.5.4-.8.6l-1.7,1.2c-.3.2-.6.4-.9.5l-.9.5c-.3.2-.6.3-.9.5l-.9.4-.9.4c-.2,0-.3.1-.5.2l-.5.2-2,.7c-1.3.4-2.7.8-4.1,1l-1,.2c-.3,0-.7,0-1.1.1-.4,0-.7,0-1.1.1h-.5c-.2,0-.4,0-.5,0-.7,0-1.4,0-2.1,0-.7,0-1.4,0-2.1-.1-2.8-.2-5.7-.8-8.4-1.8h-.3c0,0-.2-.2-.2-.2l-.5-.2-1-.4c-.3-.1-.7-.3-1-.4l-1-.5c-1.3-.6-2.5-1.4-3.7-2.1-.4-.2-.7-.5-1.1-.7-.4-.3-.8-.4-1.1-.6l-.6-.3c-.2-.1-.4-.2-.6-.3-.4-.2-.8-.4-1.2-.5-1.6-.7-3.3-1.2-5.1-1.5-1.8-.4-3.6-.5-5.4-.5-.2,0-.5,0-.7,0-.1,0-.2,0-.3,0h-.3c-.5,0-.9,0-1.4.1l-1.4.2h-.4s-.3.1-.3.1h-.7c-1.9.5-3.7,1-5.6,1.8h-.3c-.1.2-.2.2-.4.3l-.8.4c-.5.2-1.1.5-1.6.7-1.1.5-2.2.9-3.2,1.4-2.2.9-4.4,1.8-6.6,2.6-2.3.8-4.5,1.6-6.9,2.2Z"/>
          <g>
            <polygon class="cls-1" points="134.4 15 118.1 15 126.3 2.5 134.4 15"/>
            <polygon class="cls-1" points="167.9 33.5 151.5 33.5 159.7 46 167.9 33.5"/>
          </g>
        </g>
        <g>
          <path class="cls-1" d="M148.4,15.9c.3.2.5.3.8.5.5.3.9.6,1.3.7h0s.7.4.7.4c0,0,0,0,.1,0,0,0,.2,0,.3.1.2,0,.3.2.5.2.2,0,.4.2.6.2.4.2.8.3,1.2.5h0s0,0,.1,0c0,0,.1,0,.2,0,.2,0,.4.1.6.2h0c0,0,.2,0,.3.1,0,0,.1,0,.2,0l.8.2c.2,0,.4,0,.5.1h.1c0,0,.1,0,.2,0h.2s0,0,0,0c.8.2,1.6.3,2.5.4,1.9-1.1,3.9-2.1,6-3,2-.9,4.1-1.8,6.3-2.5,1.1-.4,2.1-.7,3.2-1.1,1.1-.3,2.2-.7,3.3-.9,2.2-.6,4.4-1.1,6.7-1.5,4.5-.8,9.2-1.3,13.8-1.4-4.6-.8-9.3-1.2-14.1-1.3-2.4,0-4.8,0-7.1.2-1.2,0-2.4.2-3.6.3-1.2.1-2.4.3-3.6.4-2.4.3-4.8.8-7.1,1.3-2.4.5-4.7,1.2-7.1,1.9-2.3.7-4.7,1.6-7,2.5-.6.2-1.2.5-1.8.8l.5.3Z"/>
          <path class="cls-1" d="M137.9,32.9l-.4-.3c-.4-.2-.8-.5-1.1-.7h0s0,0,0,0c0,0-.2-.1-.4-.2-.2,0-.3-.2-.5-.3l-.6-.3s0,0-.1,0c0,0-.2,0-.3-.1-.2,0-.4-.2-.6-.3-.2,0-.4-.2-.6-.3-1.3-.6-2.8-1-4.6-1.4-.8-.2-1.6-.3-2.5-.4,0,0,0,0,0,0-1.9,1.1-3.9,2.1-6,3-2,.9-4.1,1.8-6.3,2.5-1.1.4-2.1.7-3.2,1.1-1.1.3-2.2.7-3.3.9-2.2.6-4.4,1.1-6.7,1.5-4.5.8-9.2,1.3-13.8,1.4,4.6.8,9.3,1.2,14.1,1.3,2.4,0,4.8,0,7.1-.2,1.2,0,2.4-.2,3.6-.3,1.2-.1,2.4-.3,3.6-.4,2.4-.3,4.8-.8,7.1-1.3,2.4-.5,4.7-1.2,7.1-1.9,2.3-.7,4.7-1.6,7-2.5.6-.2,1.2-.5,1.8-.8,0,0,0,0-.1,0Z"/>
        </g>
      </g>
      <g>
        <g>
          <path class="cls-1" d="M179.6,35.4c1.5-2,3.1-3.8,4.7-5.5,1.6-1.8,3.2-3.5,4.9-5.1.8-.8,1.7-1.7,2.5-2.5.4-.4.9-.8,1.3-1.2l.6-.6c0,0,.2-.2.4-.3l.4-.3.8-.6c.3-.2.5-.4.8-.6l1.7-1.1c.3-.2.6-.4.9-.5l.9-.5c.3-.2.6-.3.9-.5l.9-.4.9-.4.5-.2.5-.2,2-.7c.7-.2,1.3-.4,2-.5h.5c.2-.2.3-.2.5-.2.3,0,.7-.1,1-.2l1-.2c.3,0,.7,0,1.1-.1.4,0,.7,0,1.1-.1h.5c.2,0,.4,0,.5,0h2.1c.7,0,1.4,0,2.1,0,.7,0,1.4.1,2.1.2l1.1.2c.4,0,.7.1,1,.2.7.2,1.4.3,2.1.5l2.1.6c.3.1.7.3,1,.4l1,.4c.3.1.7.3,1,.4l1,.5c1.3.6,2.5,1.4,3.7,2.1.8.4,1.5,1,2.3,1.3l.6.3c.2.1.4.2.6.3.4.2.8.4,1.2.5.4.2.8.3,1.2.5.2,0,.4.1.6.2.2,0,.4.1.6.2.2,0,.4.1.6.2l.6.2c.2,0,.4.1.6.2.2,0,.4,0,.7.1,1.8.4,3.6.5,5.4.5.2,0,.5,0,.7,0,.1,0,.2,0,.3,0h.3c.5,0,.9,0,1.4-.1l1.4-.2h.4s.3-.1.3-.1h.7c1.9-.5,3.7-1,5.6-1.8h.3c.1-.2.2-.2.4-.3l.8-.4c.5-.2,1.1-.5,1.6-.7,1.1-.5,2.2-.9,3.2-1.4,2.2-.9,4.4-1.8,6.6-2.6,2.3-.8,4.5-1.6,6.9-2.2-1.5,2-3,3.8-4.6,5.6-1.6,1.8-3.2,3.5-4.9,5.1-.8.8-1.7,1.7-2.5,2.5-.4.4-.9.8-1.3,1.2l-.6.6c0,0-.2.2-.4.3l-.4.3-.8.6c-.3.2-.5.4-.8.6l-1.7,1.2c-.3.2-.6.4-.9.5l-.9.5c-.3.2-.6.3-.9.5l-.9.4-.9.4c-.2,0-.3.1-.5.2l-.5.2-2,.7c-1.3.4-2.7.8-4.1,1l-1,.2c-.3,0-.7,0-1.1.1-.4,0-.7,0-1.1.1h-.5c-.2,0-.4,0-.5,0-.7,0-1.4,0-2.1,0-.7,0-1.4,0-2.1-.1-2.8-.2-5.7-.8-8.4-1.8h-.3c0,0-.2-.2-.2-.2l-.5-.2-1-.4c-.3-.1-.7-.3-1-.4l-1-.5c-1.3-.6-2.5-1.4-3.7-2.1-.4-.2-.7-.5-1.1-.7-.4-.3-.8-.4-1.1-.6l-.6-.3c-.2-.1-.4-.2-.6-.3-.4-.2-.8-.4-1.2-.5-1.6-.7-3.3-1.2-5.1-1.5-1.8-.4-3.6-.5-5.4-.5-.2,0-.5,0-.7,0-.1,0-.2,0-.3,0h-.3c-.5,0-.9,0-1.4.1l-1.4.2h-.4s-.3.1-.3.1h-.7c-1.9.5-3.7,1-5.6,1.8h-.3c-.1.2-.2.2-.4.3l-.8.4c-.5.2-1.1.5-1.6.7-1.1.5-2.2.9-3.2,1.4-2.2.9-4.4,1.8-6.6,2.6-2.3.8-4.5,1.6-6.9,2.2Z"/>
          <g>
            <polygon class="cls-1" points="221.2 15 204.9 15 213 2.5 221.2 15"/>
            <polygon class="cls-1" points="254.7 33.5 238.3 33.5 246.5 46 254.7 33.5"/>
          </g>
        </g>
        <g>
          <path class="cls-1" d="M235.2,15.9c.3.2.5.3.8.5.5.3.9.6,1.3.7h0s.7.4.7.4c0,0,0,0,.1,0,0,0,.2,0,.3.1.2,0,.3.2.5.2.2,0,.4.2.6.2.4.2.8.3,1.2.5h0s0,0,.1,0c0,0,.1,0,.2,0,.2,0,.4.1.6.2h0c0,0,.2,0,.3.1,0,0,.1,0,.2,0l.8.2c.2,0,.4,0,.5.1h.1c0,0,.1,0,.2,0h.2s0,0,0,0c.8.2,1.6.3,2.5.4,1.9-1.1,3.9-2.1,6-3,2-.9,4.1-1.8,6.3-2.5,1.1-.4,2.1-.7,3.2-1.1,1.1-.3,2.2-.7,3.3-.9,2.2-.6,4.4-1.1,6.7-1.5,4.5-.8,9.2-1.3,13.8-1.4-4.6-.8-9.3-1.2-14.1-1.3-2.4,0-4.8,0-7.1.2-1.2,0-2.4.2-3.6.3-1.2.1-2.4.3-3.6.4-2.4.3-4.8.8-7.1,1.3-2.4.5-4.7,1.2-7.1,1.9-2.3.7-4.7,1.6-7,2.5-.6.2-1.2.5-1.8.8l.5.3Z"/>
          <path class="cls-1" d="M224.7,32.9l-.4-.3c-.4-.2-.8-.5-1.1-.7h0s0,0,0,0c0,0-.2-.1-.4-.2-.2,0-.3-.2-.5-.3l-.6-.3s0,0-.1,0c0,0-.2,0-.3-.1-.2,0-.4-.2-.6-.3-.2,0-.4-.2-.6-.3-1.3-.6-2.8-1-4.6-1.4-.8-.2-1.6-.3-2.5-.4,0,0,0,0,0,0-1.9,1.1-3.9,2.1-6,3-2,.9-4.1,1.8-6.3,2.5-1.1.4-2.1.7-3.2,1.1-1.1.3-2.2.7-3.3.9-2.2.6-4.4,1.1-6.7,1.5-4.5.8-9.2,1.3-13.8,1.4,4.6.8,9.3,1.2,14.1,1.3,2.4,0,4.8,0,7.1-.2,1.2,0,2.4-.2,3.6-.3,1.2-.1,2.4-.3,3.6-.4,2.4-.3,4.8-.8,7.1-1.3,2.4-.5,4.7-1.2,7.1-1.9,2.3-.7,4.7-1.6,7-2.5.6-.2,1.2-.5,1.8-.8,0,0,0,0-.1,0Z"/>
        </g>
      </g>
      <g>
        <g>
          <path class="cls-1" d="M266.4,35.4c1.5-2,3.1-3.8,4.7-5.5,1.6-1.8,3.2-3.5,4.9-5.1.8-.8,1.7-1.7,2.5-2.5.4-.4.9-.8,1.3-1.2l.6-.6c0,0,.2-.2.4-.3l.4-.3.8-.6c.3-.2.5-.4.8-.6l1.7-1.1c.3-.2.6-.4.9-.5l.9-.5c.3-.2.6-.3.9-.5l.9-.4.9-.4.5-.2.5-.2,2-.7c.7-.2,1.3-.4,2-.5h.5c.2-.2.3-.2.5-.2.3,0,.7-.1,1-.2l1-.2c.3,0,.7,0,1.1-.1.4,0,.7,0,1.1-.1h.5c.2,0,.4,0,.5,0h2.1c.7,0,1.4,0,2.1,0,.7,0,1.4.1,2.1.2l1.1.2c.4,0,.7.1,1,.2.7.2,1.4.3,2.1.5l2.1.6c.3.1.7.3,1,.4l1,.4c.3.1.7.3,1,.4l1,.5c1.3.6,2.5,1.4,3.7,2.1.8.4,1.5,1,2.3,1.3l.6.3c.2.1.4.2.6.3.4.2.8.4,1.2.5.4.2.8.3,1.2.5.2,0,.4.1.6.2.2,0,.4.1.6.2.2,0,.4.1.6.2l.6.2c.2,0,.4.1.6.2.2,0,.4,0,.7.1,1.8.4,3.6.5,5.4.5.2,0,.5,0,.7,0,.1,0,.2,0,.3,0h.3c.5,0,.9,0,1.4-.1l1.4-.2h.4s.3-.1.3-.1h.7c1.9-.5,3.7-1,5.6-1.8h.3c.1-.2.2-.2.4-.3l.8-.4c.5-.2,1.1-.5,1.6-.7,1.1-.5,2.2-.9,3.2-1.4,2.2-.9,4.4-1.8,6.6-2.6,2.3-.8,4.5-1.6,6.9-2.2-1.5,2-3,3.8-4.6,5.6-1.6,1.8-3.2,3.5-4.9,5.1-.8.8-1.7,1.7-2.5,2.5-.4.4-.9.8-1.3,1.2l-.6.6c0,0-.2.2-.4.3l-.4.3-.8.6c-.3.2-.5.4-.8.6l-1.7,1.2c-.3.2-.6.4-.9.5l-.9.5c-.3.2-.6.3-.9.5l-.9.4-.9.4c-.2,0-.3.1-.5.2l-.5.2-2,.7c-1.3.4-2.7.8-4.1,1l-1,.2c-.3,0-.7,0-1.1.1-.4,0-.7,0-1.1.1h-.5c-.2,0-.4,0-.5,0-.7,0-1.4,0-2.1,0-.7,0-1.4,0-2.1-.1-2.8-.2-5.7-.8-8.4-1.8h-.3c0,0-.2-.2-.2-.2l-.5-.2-1-.4c-.3-.1-.7-.3-1-.4l-1-.5c-1.3-.6-2.5-1.4-3.7-2.1-.4-.2-.7-.5-1.1-.7-.4-.3-.8-.4-1.1-.6l-.6-.3c-.2-.1-.4-.2-.6-.3-.4-.2-.8-.4-1.2-.5-1.6-.7-3.3-1.2-5.1-1.5-1.8-.4-3.6-.5-5.4-.5-.2,0-.5,0-.7,0-.1,0-.2,0-.3,0h-.3c-.5,0-.9,0-1.4.1l-1.4.2h-.4s-.3.1-.3.1h-.7c-1.9.5-3.7,1-5.6,1.8h-.3c-.1.2-.2.2-.4.3l-.8.4c-.5.2-1.1.5-1.6.7-1.1.5-2.2.9-3.2,1.4-2.2.9-4.4,1.8-6.6,2.6-2.3.8-4.5,1.6-6.9,2.2Z"/>
          <g>
            <polygon class="cls-1" points="308 15 291.6 15 299.8 2.5 308 15"/>
            <polygon class="cls-1" points="341.4 33.5 325.1 33.5 333.3 46 341.4 33.5"/>
          </g>
        </g>
        <g>
          <path class="cls-1" d="M322,15.9c.3.2.5.3.8.5.5.3.9.6,1.3.7h0s.7.4.7.4c0,0,0,0,.1,0,0,0,.2,0,.3.1.2,0,.3.2.5.2.2,0,.4.2.6.2.4.2.8.3,1.2.5h0s0,0,.1,0c0,0,.1,0,.2,0,.2,0,.4.1.6.2h0c0,0,.2,0,.3.1,0,0,.1,0,.2,0l.8.2c.2,0,.4,0,.5.1h.1c0,0,.1,0,.2,0h.2s0,0,0,0c.8.2,1.6.3,2.5.4,1.9-1.1,3.9-2.1,6-3,2-.9,4.1-1.8,6.3-2.5,1.1-.4,2.1-.7,3.2-1.1,1.1-.3,2.2-.7,3.3-.9,2.2-.6,4.4-1.1,6.7-1.5,4.5-.8,9.2-1.3,13.8-1.4-4.6-.8-9.3-1.2-14.1-1.3-2.4,0-4.8,0-7.1.2-1.2,0-2.4.2-3.6.3-1.2.1-2.4.3-3.6.4-2.4.3-4.8.8-7.1,1.3-2.4.5-4.7,1.2-7.1,1.9-2.3.7-4.7,1.6-7,2.5-.6.2-1.2.5-1.8.8l.5.3Z"/>
          <path class="cls-1" d="M311.5,32.9l-.4-.3c-.4-.2-.8-.5-1.1-.7h0s0,0,0,0c0,0-.2-.1-.4-.2-.2,0-.3-.2-.5-.3l-.6-.3s0,0-.1,0c0,0-.2,0-.3-.1-.2,0-.4-.2-.6-.3-.2,0-.4-.2-.6-.3-1.3-.6-2.8-1-4.6-1.4-.8-.2-1.6-.3-2.5-.4,0,0,0,0,0,0-1.9,1.1-3.9,2.1-6,3-2,.9-4.1,1.8-6.3,2.5-1.1.4-2.1.7-3.2,1.1-1.1.3-2.2.7-3.3.9-2.2.6-4.4,1.1-6.7,1.5-4.5.8-9.2,1.3-13.8,1.4,4.6.8,9.3,1.2,14.1,1.3,2.4,0,4.8,0,7.1-.2,1.2,0,2.4-.2,3.6-.3,1.2-.1,2.4-.3,3.6-.4,2.4-.3,4.8-.8,7.1-1.3,2.4-.5,4.7-1.2,7.1-1.9,2.3-.7,4.7-1.6,7-2.5.6-.2,1.2-.5,1.8-.8,0,0,0,0-.1,0Z"/>
        </g>
      </g>
      <g>
        <g>
          <path class="cls-1" d="M353.1,35.4c1.5-2,3.1-3.8,4.7-5.5,1.6-1.8,3.2-3.5,4.9-5.1.8-.8,1.7-1.7,2.5-2.5.4-.4.9-.8,1.3-1.2l.6-.6c0,0,.2-.2.4-.3l.4-.3.8-.6c.3-.2.5-.4.8-.6l1.7-1.1c.3-.2.6-.4.9-.5l.9-.5c.3-.2.6-.3.9-.5l.9-.4.9-.4.5-.2.5-.2,2-.7c.7-.2,1.3-.4,2-.5h.5c.2-.2.3-.2.5-.2.3,0,.7-.1,1-.2l1-.2c.3,0,.7,0,1.1-.1.4,0,.7,0,1.1-.1h.5c.2,0,.4,0,.5,0h2.1c.7,0,1.4,0,2.1,0,.7,0,1.4.1,2.1.2l1.1.2c.4,0,.7.1,1,.2.7.2,1.4.3,2.1.5l2.1.6c.3.1.7.3,1,.4l1,.4c.3.1.7.3,1,.4l1,.5c1.3.6,2.5,1.4,3.7,2.1.8.4,1.5,1,2.3,1.3l.6.3c.2.1.4.2.6.3.4.2.8.4,1.2.5.4.2.8.3,1.2.5.2,0,.4.1.6.2.2,0,.4.1.6.2.2,0,.4.1.6.2l.6.2c.2,0,.4.1.6.2.2,0,.4,0,.7.1,1.8.4,3.6.5,5.4.5.2,0,.5,0,.7,0,.1,0,.2,0,.3,0h.3c.5,0,.9,0,1.4-.1l1.4-.2h.4s.3-.1.3-.1h.7c1.9-.5,3.7-1,5.6-1.8h.3c.1-.2.2-.2.4-.3l.8-.4c.5-.2,1.1-.5,1.6-.7,1.1-.5,2.2-.9,3.2-1.4,2.2-.9,4.4-1.8,6.6-2.6,2.3-.8,4.5-1.6,6.9-2.2-1.5,2-3,3.8-4.6,5.6-1.6,1.8-3.2,3.5-4.9,5.1-.8.8-1.7,1.7-2.5,2.5-.4.4-.9.8-1.3,1.2l-.6.6c0,0-.2.2-.4.3l-.4.3-.8.6c-.3.2-.5.4-.8.6l-1.7,1.2c-.3.2-.6.4-.9.5l-.9.5c-.3.2-.6.3-.9.5l-.9.4-.9.4c-.2,0-.3.1-.5.2l-.5.2-2,.7c-1.3.4-2.7.8-4.1,1l-1,.2c-.3,0-.7,0-1.1.1-.4,0-.7,0-1.1.1h-.5c-.2,0-.4,0-.5,0-.7,0-1.4,0-2.1,0-.7,0-1.4,0-2.1-.1-2.8-.2-5.7-.8-8.4-1.8h-.3c0,0-.2-.2-.2-.2l-.5-.2-1-.4c-.3-.1-.7-.3-1-.4l-1-.5c-1.3-.6-2.5-1.4-3.7-2.1-.4-.2-.7-.5-1.1-.7-.4-.3-.8-.4-1.1-.6l-.6-.3c-.2-.1-.4-.2-.6-.3-.4-.2-.8-.4-1.2-.5-1.6-.7-3.3-1.2-5.1-1.5-1.8-.4-3.6-.5-5.4-.5-.2,0-.5,0-.7,0-.1,0-.2,0-.3,0h-.3c-.5,0-.9,0-1.4.1l-1.4.2h-.4s-.3.1-.3.1h-.7c-1.9.5-3.7,1-5.6,1.8h-.3c-.1.2-.2.2-.4.3l-.8.4c-.5.2-1.1.5-1.6.7-1.1.5-2.2.9-3.2,1.4-2.2.9-4.4,1.8-6.6,2.6-2.3.8-4.5,1.6-6.9,2.2Z"/>
          <g>
            <polygon class="cls-1" points="394.8 15 378.4 15 386.6 2.5 394.8 15"/>
            <polygon class="cls-1" points="428.2 33.5 411.9 33.5 420 46 428.2 33.5"/>
          </g>
        </g>
        <g>
          <path class="cls-1" d="M408.8,15.9c.3.2.5.3.8.5.5.3.9.6,1.3.7h0s.7.4.7.4c0,0,0,0,.1,0,0,0,.2,0,.3.1.2,0,.3.2.5.2.2,0,.4.2.6.2.4.2.8.3,1.2.5h0s0,0,.1,0c0,0,.1,0,.2,0,.2,0,.4.1.6.2h0c0,0,.2,0,.3.1,0,0,.1,0,.2,0l.8.2c.2,0,.4,0,.5.1h.1c0,0,.1,0,.2,0h.2s0,0,0,0c.8.2,1.6.3,2.5.4,1.9-1.1,3.9-2.1,6-3,2-.9,4.1-1.8,6.3-2.5,1.1-.4,2.1-.7,3.2-1.1,1.1-.3,2.2-.7,3.3-.9,2.2-.6,4.4-1.1,6.7-1.5,4.5-.8,9.2-1.3,13.8-1.4-4.6-.8-9.3-1.2-14.1-1.3-2.4,0-4.8,0-7.1.2-1.2,0-2.4.2-3.6.3-1.2.1-2.4.3-3.6.4-2.4.3-4.8.8-7.1,1.3-2.4.5-4.7,1.2-7.1,1.9-2.3.7-4.7,1.6-7,2.5-.6.2-1.2.5-1.8.8l.5.3Z"/>
          <path class="cls-1" d="M398.3,32.9l-.4-.3c-.4-.2-.8-.5-1.1-.7h0s0,0,0,0c0,0-.2-.1-.4-.2-.2,0-.3-.2-.5-.3l-.6-.3s0,0-.1,0c0,0-.2,0-.3-.1-.2,0-.4-.2-.6-.3-.2,0-.4-.2-.6-.3-1.3-.6-2.8-1-4.6-1.4-.8-.2-1.6-.3-2.5-.4,0,0,0,0,0,0-1.9,1.1-3.9,2.1-6,3-2,.9-4.1,1.8-6.3,2.5-1.1.4-2.1.7-3.2,1.1-1.1.3-2.2.7-3.3.9-2.2.6-4.4,1.1-6.7,1.5-4.5.8-9.2,1.3-13.8,1.4,4.6.8,9.3,1.2,14.1,1.3,2.4,0,4.8,0,7.1-.2,1.2,0,2.4-.2,3.6-.3,1.2-.1,2.4-.3,3.6-.4,2.4-.3,4.8-.8,7.1-1.3,2.4-.5,4.7-1.2,7.1-1.9,2.3-.7,4.7-1.6,7-2.5.6-.2,1.2-.5,1.8-.8,0,0,0,0-.1,0Z"/>
        </g>
      </g>
    </g>
  </g>
</svg>
